<svg width="127" height="49" viewBox="0 0 127 49" fill="none" xmlns="http://www.w3.org/2000/svg">
<g clip-path="url(#clip0_136_5578)">
<path fill-rule="evenodd" clip-rule="evenodd" d="M10.6725 0.955538C9.51728 0.955538 8.58079 1.87533 8.58079 3.00995V45.9901C8.58079 47.1247 9.51728 48.0445 10.6725 48.0445H31.1614C32.3166 48.0445 33.2531 47.1247 33.2531 45.9901V3.00995C33.2531 1.87533 32.3166 0.955538 31.1614 0.955538H10.6725ZM7.60791 3.00995C7.60791 1.3476 8.97997 0 10.6725 0H31.1614C32.8539 0 34.226 1.3476 34.226 3.00995V45.9901C34.226 47.6524 32.8539 49 31.1614 49H10.6725C8.97997 49 7.60791 47.6524 7.60791 45.9901V3.00995Z" fill="#263470"/>
<path d="M22.4734 4.78735H19.3018C18.3132 4.78735 17.5117 5.57452 17.5117 6.54554V42.5024C17.5117 43.4735 18.3132 44.2606 19.3018 44.2606H22.4734C23.4621 44.2606 24.2635 43.4735 24.2635 42.5024V6.54554C24.2635 5.57452 23.4621 4.78735 22.4734 4.78735Z" fill="#263470"/>
<path d="M21.8313 8.65715C19.3078 7.89282 16.6368 7.72104 14.0333 8.15564C11.4299 8.59024 8.96663 9.61909 6.84191 11.1594C4.71718 12.6996 2.9903 14.7083 1.80026 17.0238C0.610208 19.3392 -0.00976562 21.8967 -0.00976562 24.4904C-0.00976562 27.0841 0.610208 29.6416 1.80026 31.9571C2.9903 34.2725 4.71718 36.2812 6.84191 37.8215C8.96663 39.3618 11.4299 40.3906 14.0333 40.8252C16.6368 41.2598 19.3078 41.088 21.8313 40.3237V8.65715Z" fill="#21C463"/>
<path d="M17.1322 31.2366V33.3484H15.1865V31.2939C13.4784 31.2413 11.8198 30.7182 10.3999 29.7842L11.4603 27.4813C12.5639 28.2359 13.8476 28.6968 15.1865 28.8191V25.6658C13.0559 25.1594 10.6723 24.4618 10.6723 21.7577C10.6723 19.7606 12.1511 18.0406 15.1865 17.6966V15.604H17.1322V17.6584C18.5038 17.7386 19.8369 18.1347 21.0238 18.8146L20.0509 21.1366C19.1501 20.6355 18.1589 20.311 17.1322 20.181V23.3916C19.2628 23.879 21.6075 24.5765 21.6075 27.2138C21.6075 29.1822 20.1482 30.8735 17.1322 31.2366ZM15.1865 22.8948V20.2097C14.2136 20.439 13.7661 20.9837 13.7661 21.6048C13.7661 22.2259 14.3595 22.6272 15.2059 22.8948H15.1865ZM18.4943 27.4431C18.4943 26.7838 17.9397 26.4207 17.1128 26.134V28.7427C18.0857 28.5324 18.5137 28.0451 18.5137 27.4431H18.4943Z" fill="white"/>
<path d="M45.1806 10.5684V41.6807H38.5845V10.5684H45.1806Z" fill="#263470"/>
<path d="M56.9717 14.2279C56.9739 14.7252 56.8677 15.2171 56.6604 15.6708C56.449 16.1174 56.1517 16.5198 55.7848 16.8556C55.4159 17.2028 54.9835 17.4783 54.5104 17.6678C54.0171 17.8686 53.4876 17.9694 52.9537 17.9641C52.4386 17.9703 51.928 17.8694 51.4555 17.6678C50.9938 17.4733 50.5719 17.1981 50.2102 16.8556C49.8512 16.5195 49.5635 16.1168 49.3638 15.6708C49.1596 15.2165 49.0567 14.7245 49.0622 14.2279C49.0567 13.7221 49.1595 13.2207 49.3638 12.7564C49.5654 12.303 49.8526 11.8912 50.2102 11.5428C50.5697 11.2001 50.9923 10.9278 51.4555 10.7402C51.9332 10.5472 52.4472 10.456 52.9635 10.4726C53.4974 10.4673 54.0269 10.568 54.5201 10.7689C54.9943 10.9519 55.4273 11.2246 55.7946 11.5715C56.1609 11.9189 56.4578 12.3305 56.6701 12.785C56.8703 13.2406 56.9729 13.7317 56.9717 14.2279Z" fill="#21C463"/>
<path d="M56.3009 20.1331H49.7437V41.69H56.3009V20.1331Z" fill="#263470"/>
<path d="M67.0512 22.7897C67.895 21.8999 68.8808 21.1511 69.9698 20.5728C71.1746 19.9745 72.5117 19.679 73.8614 19.7128C74.9659 19.7028 76.0556 19.9622 77.0329 20.4677C78.0334 20.9839 78.8965 21.7236 79.5527 22.6272C80.315 23.6723 80.8786 24.8442 81.2163 26.0863C81.6364 27.5991 81.8394 29.1622 81.8195 30.7302C81.8338 32.2537 81.6006 33.7698 81.1288 35.2212C80.7049 36.5179 80.0457 37.7286 79.183 38.7949C78.3936 39.7804 77.3984 40.5885 76.2644 41.1646C75.0689 41.7387 73.752 42.0269 72.4215 42.0055C71.4261 42.0362 70.4343 41.8738 69.5028 41.5278C68.7324 41.2133 68.0194 40.7776 67.3917 40.2378V48.5127H60.8345V20.1333H64.8914C65.245 20.1019 65.5987 20.1926 65.8917 20.3896C66.1847 20.5867 66.3986 20.8778 66.4966 21.213L67.0512 22.7897ZM67.4501 35.8232C67.8916 36.3109 68.4406 36.6933 69.0553 36.9412C69.6344 37.166 70.252 37.2795 70.8746 37.2756C71.4524 37.2831 72.0244 37.1623 72.548 36.9221C73.0808 36.6649 73.5367 36.2764 73.8711 35.7945C74.2872 35.1779 74.584 34.4911 74.7467 33.7688C74.979 32.7725 75.0868 31.7521 75.0677 30.7302C75.0824 29.7687 74.9976 28.8082 74.8148 27.8636C74.6883 27.1921 74.4483 26.5461 74.1046 25.9525C73.8446 25.5168 73.4677 25.1598 73.0149 24.9205C72.5712 24.7142 72.0855 24.6096 71.5945 24.6147C70.7743 24.5822 69.9595 24.7601 69.2304 25.1307C68.5472 25.5257 67.9437 26.0407 67.4501 26.65V35.8232Z" fill="#263470"/>
<path d="M84.738 23.1242C86.0251 21.997 87.5215 21.1242 89.1452 20.5538C90.8161 19.9872 92.5727 19.7029 94.3404 19.7129C95.5682 19.6932 96.7879 19.9107 97.9303 20.3531C98.9513 20.7434 99.8741 21.3465 100.635 22.1209C101.387 22.8895 101.967 23.8041 102.337 24.8059C102.744 25.8984 102.945 27.0542 102.931 28.2172V41.6807H99.9344C99.4507 41.7112 98.9666 41.626 98.5238 41.4323C98.1418 41.1876 97.8594 40.819 97.726 40.3908L97.259 39.2059C96.7142 39.6646 96.1791 40.0659 95.6732 40.4194C95.1768 40.76 94.6492 41.0543 94.0971 41.2985C93.5417 41.5412 92.9611 41.7239 92.3654 41.8432C91.6914 41.9631 91.0073 42.0207 90.3224 42.0152C89.3965 42.0271 88.4743 41.8982 87.5886 41.633C86.8217 41.4001 86.1127 41.0128 85.5066 40.4959C84.9262 39.9862 84.4734 39.3518 84.1835 38.6421C83.8586 37.8234 83.7 36.9502 83.7165 36.0717C83.7317 35.2513 83.9346 34.4446 84.31 33.7115C84.7935 32.825 85.5002 32.075 86.3627 31.5329C87.5582 30.7749 88.8731 30.2163 90.2543 29.8798C92.2944 29.3822 94.3883 29.1287 96.4904 29.125V28.1694C96.5794 27.1942 96.2988 26.2211 95.7024 25.4366C95.409 25.1464 95.0558 24.9212 94.6665 24.7762C94.2772 24.6312 93.8608 24.5696 93.4453 24.5957C92.7871 24.5701 92.1292 24.6541 91.4995 24.8441C91.0451 24.9922 90.6055 25.181 90.1862 25.4079C89.797 25.6086 89.4176 25.7997 89.0479 25.9621C88.6348 26.1414 88.1858 26.2263 87.7345 26.2106C87.3299 26.2212 86.932 26.1076 86.5962 25.8857C86.2951 25.6701 86.0377 25.4011 85.8374 25.0926L84.738 23.1242ZM96.5391 32.9089C95.4556 32.944 94.3762 33.0558 93.3091 33.2433C92.6134 33.3645 91.9366 33.5733 91.2952 33.8644C90.878 34.0493 90.5235 34.3477 90.2737 34.7244C90.0783 35.034 89.977 35.3921 89.9819 35.7564C89.9505 36.0438 89.9897 36.3343 90.0964 36.6037C90.203 36.8731 90.3739 37.1133 90.5948 37.3044C91.1289 37.6425 91.7609 37.8002 92.3946 37.7535C93.1601 37.7692 93.92 37.6226 94.6225 37.3235C95.3519 36.97 96.0109 36.491 96.5683 35.9093L96.5391 32.9089Z" fill="#263470"/>
<path d="M126.99 10.5684V41.6807H122.933C122.579 41.7088 122.226 41.6171 121.932 41.4206C121.638 41.2242 121.422 40.9349 121.318 40.6009L120.812 38.9574C120.387 39.4067 119.928 39.8251 119.441 40.2091C118.957 40.5793 118.435 40.8995 117.884 41.1647C117.311 41.4398 116.707 41.6482 116.084 41.7858C115.401 41.9353 114.702 42.009 114.002 42.0056C112.896 42.0146 111.804 41.7588 110.821 41.2602C109.827 40.7382 108.969 39.9995 108.311 39.1007C107.55 38.0512 106.987 36.8765 106.647 35.6321C106.225 34.1131 106.022 32.5435 106.044 30.9691C106.03 29.4494 106.259 27.9369 106.725 26.4876C107.146 25.1897 107.805 23.9784 108.671 22.9139C109.479 21.9267 110.495 21.1218 111.648 20.5537C112.84 19.9802 114.153 19.6889 115.481 19.7033C116.46 19.6767 117.435 19.839 118.351 20.1811C119.122 20.5004 119.837 20.9356 120.472 21.4711V10.5684H126.99ZM120.433 25.9047C119.994 25.419 119.444 25.0424 118.828 24.8059C118.247 24.5879 117.63 24.4777 117.008 24.481C116.431 24.4754 115.859 24.5962 115.335 24.8345C114.8 25.0925 114.343 25.4848 114.012 25.9716C113.59 26.585 113.292 27.2729 113.136 27.9974C112.905 28.9841 112.797 29.9949 112.815 31.0073C112.801 31.9688 112.885 32.9293 113.068 33.8739C113.189 34.5471 113.429 35.1941 113.778 35.785C114.036 36.2229 114.413 36.5806 114.868 36.817C115.31 37.029 115.797 37.1339 116.289 37.1228C116.724 37.1307 117.158 37.0858 117.582 36.989C117.954 36.9067 118.314 36.7782 118.653 36.6068C118.988 36.4387 119.299 36.2265 119.577 35.9761C119.884 35.7008 120.17 35.4038 120.433 35.0875V25.9047Z" fill="#263470"/>
</g>
<defs>
<clipPath id="clip0_136_5578">
<rect width="127" height="49" fill="white"/>
</clipPath>
</defs>
</svg>